# xmcd CD database file
#
# Track frame offsets:
#	150
#	16045
#	32565
#	48103
#	63434
#	85035
#	101134
#	125332
#	142856
#	162305
#	179812
#	197483
#	213640
#	229526
#	251211
#	269088
#	285949
#	300689
#
# Disc length: 4287 seconds
#
# Revision: 0
# Processed by: cddbd v1.4PL0 Copyright (c) Steve Scherf et al.
# Submitted via: CDex 1.50
#
DISCID=f810bd12
DTITLE=Ocarina - Ocarina
DYEAR=1900
DGENRE=New Age
TTITLE0=Ocarina 2
TTITLE1=Song Of Ocarina
TTITLE2=Lonely Singer
TTITLE3=Song Of Baby Jane
TTITLE4=Simple Merlene
TTITLE5=La Compilainte De Jesse James
TTITLE6=Cantica
TTITLE7=Implora
TTITLE8=Ocarina Blue
TTITLE9=Rose-Mary Reggae
TTITLE10=Camilleva
TTITLE11=Hot Cakes Reggae
TTITLE12=November Is Gone
TTITLE13=Sparrow Dream
TTITLE14=Mystical Force
TTITLE15=Flying Officer
TTITLE16=Zamba
TTITLE17=MoonLight Reggae
EXTD=
EXTT0=
EXTT1=
EXTT2=
EXTT3=
EXTT4=
EXTT5=
EXTT6=
EXTT7=
EXTT8=
EXTT9=
EXTT10=
EXTT11=
EXTT12=
EXTT13=
EXTT14=
EXTT15=
EXTT16=
EXTT17=
PLAYORDER=
